# xmcd
#
# Track frame offsets: 
#        150
#        14562
#        29429
#        43943
#        62419
#        82183
#        97257
#        116420
#        135278
#        152843
#        165090
#        181767
#        197490
#        213867
#        231360
#        245591
#        263461
#        288099
#        304357
#        327344
#
# Disc length: 4646 seconds
#
# Revision: 0
# Processed by: cddbd v1.5.2PL0 Copyright (c) Steve Scherf et al.
# Submitted via: ExactAudioCopy v0.99pb5
#
DISCID=0e122414
DTITLE=Oscar Peterson  - Songbooks Etcetera [Disc 5]  FLAC
DYEAR=1900
DGENRE=
TTITLE0=Nagasaki
TTITLE1=Serenade in Blue
TTITLE2=Lullaby of Broadway
TTITLE3=I Found a Million Dollar Baby
TTITLE4=Would You Like to Take a Walk
TTITLE5=I'll String Along with You
TTITLE6=I Only Have Eyes for You
TTITLE7=You Must Have Been a Beautiful Baby
TTITLE8=You're Getting to Be a Habit with Me
TTITLE9=Chattanooga Choo Choo
TTITLE10=You're My Everything
TTITLE11=When My Sugar Walks Down the Street
TTITLE12=I Can't Believe That You're in Love with Me
TTITLE13=On the Sunny Side of the Street
TTITLE14=Don't Blame Me
TTITLE15=I'm in the Mood for Love
TTITLE16=I Can't Give You Anything But Love
TTITLE17=I Couldn't Sleep a Wink Last Night
TTITLE18=Diga Diga Doo
TTITLE19=You're a Sweetheart
EXTD=
EXTT0=
EXTT1=
EXTT2=
EXTT3=
EXTT4=
EXTT5=
EXTT6=
EXTT7=
EXTT8=
EXTT9=
EXTT10=
EXTT11=
EXTT12=
EXTT13=
EXTT14=
EXTT15=
EXTT16=
EXTT17=
EXTT18=
EXTT19=
PLAYORDER=
